<?xml version="1.0" encoding="UTF-8"?>
<svg id="Layer_1" data-name="Layer 1" xmlns="http://www.w3.org/2000/svg" viewBox="0 0 453.56 833.22">
  <defs>
    <style>
      .cls-1 {
        fill: none;
      }
    </style>
  </defs>
  <g>
    <path class="cls-1" d="M114.42,187.65c-11.23-5.97-22.3-10.75-35.06-12.26-10.86-1.28-19.89,5.62-21.03,16.66-2.53,24.45-4.8,48.64-3.43,73.27,1.98,35.53,16.6,68.61,42.6,92.5,14,12.86,30.2,22.83,49.38,27.08,24.45,5.43,45.52-7.28,53.26-29.65,7.03-20.3,5.86-41.83-.2-62.66-13.3-45.75-43.68-82.67-85.53-104.94Z"/>
    <path d="M294.62,25.72c-38.32-36.67-95.04-32.97-130.72,3.77-26.41,27.19-40.69,62.3-42.87,100.54-27.85-12.89-57.98-24.22-88.42-17.68C13.75,116.4.97,131.06.09,150.72c-1.4,31.39,13.4,44.92,8.03,99.92-3.53,36.14,2.43,70.65,21,102.45,20.08,34.39,51.01,60.86,88.26,75.19,46.59,17.91,100.98,5.35,124.35-41.56,33.29-66.82,3.85-145.12-45.07-196.27-19.96-20.87-28.49-46.23-21.92-75.12,4.49-19.75,13.09-38.21,28.61-51.25,17.63-14.82,39.42-14.19,56.21,1.95,16.86,16.21,26.59,38.15,31.72,61.93l40.61-24.86c-3.05-29.42-16.14-57.01-37.27-77.39ZM199.95,292.59c6.06,20.84,7.23,42.36.2,62.66-7.74,22.37-28.8,35.07-53.26,29.65-19.17-4.25-35.38-14.22-49.38-27.08-26-23.89-40.62-56.96-42.6-92.5-1.37-24.63.9-48.83,3.43-73.27,1.14-11.04,10.16-17.94,21.03-16.66,12.76,1.51,23.83,6.29,35.06,12.26,41.84,22.27,72.22,59.2,85.53,104.94Z"/>
  </g>
  <path d="M163.12,494.93c16.63-16.42,33.58-28.51,52.77-40.51l102.81-64.27c49.6-31,81.26-75.46,80.34-135.77-.32-20.63-.6-40.13-3.26-60.27-1.07-8.1-5.24-16.83-14.03-18.17-7.84-1.19-16.51.75-24.23,3.85-37.27,14.98-68,41.23-90,74.69l-21.24-40.71c27.43-53.54,109.11-110.28,170.17-102.54,19.57,2.48,34.19,15.63,36.58,35.48,3.68,30.54-13.11,47.82-7.22,105.89,7.36,72.49-25.48,125.98-83.58,165.85-28.37,19.47-57.21,36.13-86.82,53.73-23.26,13.83-45.13,27.35-65.37,45.04-33.04,30.4-52.44,71.8-48.58,117,2.07,24.2,9.1,46.25,14.9,70.36-34.68-17.65-55.63-51.68-59.33-89.97-4.31-44.68,13.69-87.72,46.08-119.7Z"/>
  <path d="M336.9,735.42c11.65.57,18.82,8.11,20.97,18.76,2.35,11.61-3.71,28.66-17.57,28.88l-61.15.99c-15,.24-23.9,12.46-25.37,26.02-1.54,14.14-11.74,23.17-25.79,23.15-13.52-.02-25.4-9.93-25.41-25.21l-.09-213.71c-.02-36.39,20.98-58.43,50.87-76.49l1.26,94.46c.24,18.06,13.53,30.75,31.15,31.44,15.55.61,30.62.28,46.38-.33,7.18-.28,14.3,1.04,18.98,5.91s6.74,11.31,6.9,18.39c.28,12.45-7.5,22.88-20.48,24.07-14.92,1.37-42.98-2.79-43.54,20.28-.27,11.35,7.44,21.67,20.02,22.28l22.88,1.12Z"/>
</svg>