<?xml version="1.0" encoding="UTF-8"?>
<svg id="Layer_1" data-name="Layer 1" xmlns="http://www.w3.org/2000/svg" viewBox="0 0 1012.76 680.91">
  <defs>
    <style>
      .cls-1 {
        fill: #fff;
      }
    </style>
  </defs>
  <g>
    <path class="cls-1" d="M789.74,549.01c-33.14,7.1-33.75-17.58-54.44-45.51-7.08-9.55-16.99-15.7-28.58-14.97l-.04,40.55c0,6.91,2.13,13.07,4.75,20.43l-29.98.38c2.07-5.84,5.06-10.98,5.06-15.9l.03-97.06c0-5.86-2.33-10.98-5.09-17.85,26.29,1.2,65.89-6.51,84.24,15.83,9.25,11.26,8.17,28.32-1.07,39.42-6,7.21-15.14,10.35-23.89,13.54,8.15,5.36,15.22,10.94,19.84,18.68l17.1,28.67c2.99,5.01,7.39,9.12,12.09,13.79ZM750.41,460.58c1.36-11.11-.67-23.09-9.51-29.5-9.92-7.2-23.05-6.83-34.26-5.35l.03,56.96c8.07,1.53,16.68,2.27,24.83.75,10.84-2.02,17.54-11.65,18.91-22.87Z"/>
    <path class="cls-1" d="M264.61,484.35c0,37.95-30.76,68.71-68.71,68.71s-68.71-30.76-68.71-68.71,30.76-68.71,68.71-68.71,68.71,30.76,68.71,68.71ZM202.16,546.2c41.36-4.24,45.42-63.25,32.98-95.48-6.82-17.66-22.21-28.9-40.14-28.51-17.58.39-32.94,10.54-39.59,28.19-8.61,22.84-7.5,49.64,3.12,71.72,8.1,16.85,24.67,26.02,43.64,24.08Z"/>
    <path class="cls-1" d="M886.5,536.29c2.9-15.59.68-32.04.89-48.06l20.73-.81-.75,48.14c-22.36,17.1-53.07,22.25-79.28,11.44-22.35-9.22-36.43-28.51-39.35-52.04-2.55-20.57,1.8-41.3,16.13-56.69,25.79-27.68,74.65-30.38,100.22-3.08l-8.66,13.91c-8.87-17.24-23.31-27.2-40.9-26.81-18.25.4-33.4,11.27-39.96,29.02-10.73,29.04-7.21,79.77,28.28,91.98,14.27,4.9,32.01,4.34,42.65-6.99Z"/>
    <path class="cls-1" d="M382.91,549.53c0,2.05-6.78.14-7.96-1.36l-85.61-108.77.04,85.46c0,8.63,3.06,15.96,6.34,24.56l-18.36.48c2.35-6.78,5.55-13.52,5.56-20.93l.2-93.66c.01-5.51-4.54-9.91-8.07-16.16l23.33-.15,78.11,98.38.21-74.11c.02-8.65-2.71-15.63-5.96-24.33l18.25.36c-4.64,8.9-6,15.75-6.01,25.25l-.05,104.96Z"/>
    <path class="cls-1" d="M30.1,446.93c-10.07,20.59-10.55,45.41-1.55,65.86,7.8,17.72,24.08,27.9,41.28,29.49,19.99,1.84,34.46-7.55,48.69-23.45-5.53,23.38-30.21,33.6-51.78,33.59-37.18-.01-65.26-27.32-66.66-63.99-.94-24.62,8.62-47.48,29.82-60.85,26.4-16.64,66.15-15.8,88.56,8.07-2.87,5.27-5.78,9.82-9.33,14.28-8.44-15.97-21.33-26.47-38.44-27.4-16.27-.89-32.51,7.93-40.57,24.41Z"/>
    <path class="cls-1" d="M652.94,486.83c-16.22-2.97-30.22-3.28-47.24-2.75l.02,59.73c23.24.48,43.66,3.16,62.76-12.74-.05,6.49-.7,12.6-1.99,19.06l-84.79-.3c1.93-6.03,4.06-12.54,4.07-19.08l.09-90.87c0-7.21-1.75-13.59-4.39-20.95l81.4.03,1.04,15.87c-20.9-12.09-34.22-9.73-58.15-9.96l-.13,53.47,26.32.1c7.31.03,13.42-1.67,21.09-3.71l-.11,12.1Z"/>
    <path class="cls-1" d="M431.14,447.52c-9.58,19.99-9.57,43.03-2.04,62.93,7.04,18.6,22.9,29.53,40.86,31.79,20.41,2.58,35.33-6.92,49.85-23.22-5.91,22.02-27.96,32.36-48.44,33.39-37.7,1.9-67.18-25.26-69.85-62.41-2.73-37.97,23.66-70.05,61.85-73.45,20.57-1.83,40.99,3.11,55.39,18.82-2.18,5.24-4.96,10.09-7.92,14.16-6.98-9.82-13.14-18.68-23.97-23.56-21.1-9.52-45.32-.19-55.73,21.54Z"/>
    <path class="cls-1" d="M996.69,486.76c-16.03-3.04-30.91-3.47-46.64-2.43l.23,59.67c26.63.27,41.66,2.71,62.48-12.69l-2.31,18.61h-84.13c2.84-8.72,4.14-16.32,4.12-25.18l-.17-94.79-4.05-10.91,80-.16,1.43,15.74c-20.81-11.7-35.03-9.6-57.42-9.76l-.16,53.34c15.46-.15,31.38,2.07,46.3-3.61l.31,12.17Z"/>
    <path class="cls-1" d="M563.73,549.72l-30.13.17c1.97-6.81,4.22-12.42,4.23-19.01l.13-92.41c.01-6.97-2.01-12.77-4.61-19.5h30.31c-2.51,6.23-4.79,11.52-4.79,17.85l-.03,92.57c0,6.87,1.84,11.43,4.88,20.33Z"/>
  </g>
  <g>
    <path class="cls-1" d="M379.06,636.19c.17,10.73-4.26,19.14-13.58,22.91-7.97,3.22-18.47.89-24.12-6.59l-1.67,7.01c-.37,1.54-6.12-.27-6.55-1.45l-.6-54.31c-.02-1.76-.37-5.46.85-5.56l6.8-.54.92,22.84c8.05-6.55,15.98-8.68,24.86-5.23,7.27,2.83,12.94,10.73,13.09,20.93ZM371.23,637.72c.6-11.13-7.81-18.19-17.07-16.92-8.96,1.23-14.5,9.57-12.8,18.95,1.44,7.94,7.82,14.05,15.29,13.63,7.76-.44,14.09-6.49,14.58-15.66Z"/>
    <path class="cls-1" d="M581.54,653.14c15.22,4.27,13.97-12.83,24.69-7.3-3.69,12.72-16.63,16.64-27.78,13.56-11.99-3.32-17.4-14.74-15.24-27.45,1.84-10.86,10.09-18.15,21.76-18.21,6.83-.03,13.78,2.3,17.87,7.59,3.74,4.84,5.25,12.2,3.6,18.34l-35.1.18c0,7.47,4.69,11.75,10.19,13.3ZM599.17,632.52c-1.72-10.04-8.82-12.61-16.02-11.86-5.71.6-11.7,5.01-11.31,12.54l27.33-.68Z"/>
    <path class="cls-1" d="M680.71,657.2c0,1.68-5.2,3.89-5.88,2.83-.87-1.35-1.69-3.29-2.99-6.4-5.44,6.48-14.53,8.54-22.2,5.87-8.51-2.96-14.08-9.91-14.93-19.55-.86-9.83,2.6-19.31,10.82-23.49,8.82-4.49,19.41-3.67,26.53,3.86l1.11-4.97c.29-1.28,3.7-.99,7.33-.88l.21,42.74ZM673.01,637.64c.37-10.11-7.17-17.36-15.96-16.92s-14.91,8.33-14.08,17.38c.8,8.79,7.11,15.59,15.28,15.14,7.91-.44,14.4-5.79,14.76-15.6Z"/>
    <path class="cls-1" d="M491.53,646.68l-25.5-.04-4.55,11.17c-.91,2.24-6.88,2.46-8.54.77l20.8-55.87c1.62-2,8.09-1.35,10.14.44l20.71,55.45c-.91,1.12-7.53,2.04-8.25.22l-4.81-12.14ZM489.17,639.77l-10.4-27.82-10.68,27.87,21.07-.06Z"/>
    <path class="cls-1" d="M427.48,614.84l-26.01,64.14c-.88,2.18-6.2,2.24-9.06,1.53l8.46-21.32-17.44-44.05c1.26-1.36,7.74-1.44,8.79,1.18l13.28,33,13.7-34.17c1.96-.44,5.2-.54,8.27-.3Z"/>
    <path class="cls-1" d="M545.58,659.67v-25.77c0-7.84-4.11-13.06-11.65-13.43-6.15-.3-12.33,4.15-12.45,12.19l-.38,25.7c-.03,1.88-7.77,1.76-7.77-.23l-.15-41.52c0-1.58,4.88-3.42,5.72-2.52l3.29,3.51c3.44-1.87,9.21-3.74,14.06-3.81,10.2-.14,17.01,7.32,16.98,16.95l-.08,28.69-7.57.24Z"/>
    <rect class="cls-1" x="589.49" y="624.71" width="62.21" height="7.82" transform="translate(-8.38 1248.86) rotate(-89.97)"/>
  </g>
  <g>
    <path class="cls-1" d="M512.63,162.7c-9.28,18.6-30.11,25.06-49.64,19.72-32.92-9.01-54.13-41.57-51.29-75.85,1.09-13.19,0-25.18-2.89-37.88-2.68-11.8,3.01-22.77,15.18-24.74,12.09-1.96,23.81,2.19,34.88,7.63,3.48-12.33,6.47-24.52,14.11-34.08,11.16-13.97,28.16-20.87,45.79-15.88,27.22,7.71,34.81,38.09,29.54,42.63-1.56,1.34-5.79,2.64-7.76,2.33-9.31-15.78-22.26-27.86-40.42-22.89-7.02,1.92-12.93,8.64-16.67,15.82-13.32,25.62,11.81,33.73,27.74,66.01,8.81,17.85,10.66,38.68,1.43,57.18ZM469.14,162c12.2,3.46,22.6-3.31,25.23-14.55,12.31-52.61-57.72-89.81-60.44-69.43-1.83,13.71-2.65,27.08-.69,40.68,2.89,20.03,16,37.66,35.91,43.3Z"/>
    <path class="cls-1" d="M462.88,235.22c5.87-13.8,15.17-24.61,26.76-33.28,17.93-13.41,36.56-24.29,55.43-36.56,36.25-23.58,37.7-47.41,34.16-86.46-.39-4.28-5.25-7.81-9.05-6.98-19.06,4.14-32.53,14.96-44.5,31.63-4.79-5.71-7.57-11.57-9.57-18.14,13.59-21.34,46.12-44.85,72.05-41.59,12.38,1.55,17.67,12.04,15.72,24.16-1.58,9.76-4.71,20.7-3.15,30.75,8.68,55.89-34.79,79.14-75.23,103.01-26.56,15.67-50.66,34.66-47.83,70.05.78,9.8,3.2,19.31,4.77,29.78-23.41-13.48-29.73-42.37-19.54-66.34Z"/>
    <path class="cls-1" d="M536.26,312.89c8.02,8.77,25.83-2.47,27,14.04.46,6.48-4.61,11.09-11.78,11.1l-22.89.04c-16.31.03-5.88,21.89-21.79,21.87-7.13,0-11.68-4.63-11.63-12.53l.62-98.32c.08-11.97,11.08-20.72,21.7-26.28l1.14,39.47c.55,19.22,22.5,13.9,38,15.15,6.45.52,6.63,10.11,5.05,14.35-3.8,10.22-17.82,1.77-25.34,9.71-2.09,2.21-2.31,8.98-.09,11.41Z"/>
  </g>
</svg>